# xmcd CD database file
#
# Track frame offsets:
#	150
#	14009
#	27060
#	50817
#	63979
#	77343
#	88323
#	106681
#	122330
#	134949
#	148572
#	163442
#	175977
#	200835
#	212693
#	225451
#
# Disc length: 3192 seconds
#
# Revision: 0
# Processed by: cddbd v1.5.1PL2 Copyright (c) Steve Scherf et al.
# Submitted via: CDex 1.51
#
DISCID=e60c7610
DTITLE=Skiddle-am-bam - Move That Thing
DYEAR=2005
DGENRE=Jug band
TTITLE0=Keep Your Hands Off
TTITLE1=Move That Thing
TTITLE2=Statesboro' Blues
TTITLE3=Whitewash Station
TTITLE4=San Francisco Bay Blues
TTITLE5=Stealin'
TTITLE6=Got My Mojo Workin'
TTITLE7=Fourth Street Mess Around
TTITLE8=Malt 'n' Barley Blues
TTITLE9=Keep It Clean
TTITLE10=White Trash
TTITLE11=My Friend Was Arrested
TTITLE12=Outskirts of Town
TTITLE13=It Won't Act Right
TTITLE14=That's All Right
TTITLE15=Skiddle-am-bam
EXTD=YEAR: 2005
EXTT0=
EXTT1=
EXTT2=
EXTT3=
EXTT4=
EXTT5=
EXTT6=
EXTT7=
EXTT8=
EXTT9=
EXTT10=
EXTT11=
EXTT12=
EXTT13=
EXTT14=
EXTT15=
PLAYORDER=
